<?xml version="1.0" encoding="utf-8"?>
<!-- Generator: Adobe Illustrator 28.1.0, SVG Export Plug-In . SVG Version: 6.00 Build 0)  -->
<svg version="1.1" id="Layer_1" xmlns="http://www.w3.org/2000/svg" xmlns:xlink="http://www.w3.org/1999/xlink" x="0px" y="0px"
	 viewBox="0 0 412.79 263.22" style="enable-background:new 0 0 412.79 263.22;" xml:space="preserve">
<style type="text/css">
	.st0{fill:#010101;}
</style>
<g>
	<g>
		<path d="M47,251.2c-12.86,0-25.73-0.01-38.59,0.02c-1.06,0-1.38-0.22-1.38-1.34c0.05-7.95,0.05-15.9,0-23.85
			c-0.01-1.02,0.2-1.31,1.28-1.31c21.98,0.04,43.96,0.11,65.94,0c13.62-0.07,25.5-4.87,35.44-14.19
			c9.19-8.61,14.49-19.27,16.13-31.74c0.13-1.03,0.23-2.07,0.26-3.1c0.01-0.64,0.25-0.77,0.84-0.77c7.95,0.02,15.9-0.01,23.86,0.02
			c2.67,0.01,4.73,2.24,4.63,5.05c-0.23,6.09-1.31,12.06-3.27,17.82c-8.11,23.76-23.8,40.24-47.5,48.85
			c-7.07,2.57-14.43,3.67-21.95,3.78c-11.9,0.17-23.79,0.37-35.69,0.56C47.01,251.07,47,251.13,47,251.2z"/>
		<path d="M47.75,10.76c11.5,0.16,23,0.29,34.5,0.5c18.89,0.33,35.28,7,49.06,19.86c13.2,12.32,21.17,27.47,23.65,45.42
			c0.25,1.78,0.47,3.56,0.47,5.36c0,2.61-1.75,4.57-4.33,4.86c-0.4,0.05-0.8,0.07-1.19,0.07c-7.55,0-15.11-0.01-22.66,0.02
			c-0.85,0-1.12-0.17-1.17-1.08c-1.41-22.89-18.26-42.58-40.59-47.5c-4-0.88-8.03-1.3-12.11-1.3C51.75,36.97,30.12,36.97,8.5,37
			c-1.12,0-1.47-0.21-1.46-1.41c0.06-7.95,0.05-15.9,0.01-23.85c-0.01-1.01,0.28-1.24,1.27-1.24c7.15,0.07,14.3,0.09,21.46,0.1
			c5.99,0.01,11.98,0,17.98,0C47.75,10.66,47.75,10.71,47.75,10.76z"/>
		<path class="st0" d="M35.67,128.27c2.23,4.18,4.73,7.96,7.71,11.4c10.48,12.09,23.4,20.09,39.25,22.95
			c8.95,1.61,17.72,0.8,26.16-2.78c0.3-0.13,0.6-0.44,1.09-0.09c-1.66,1.28-3.41,2.37-5.18,3.42
			c-11.14,6.54-23.17,10.07-36.08,10.61c-17.23,0.72-33.06-3.59-47.4-13.24c-3.45-2.32-4.69-5.57-3.48-9.03
			c0.22-0.65,0.52-1.26,0.94-1.79C24.3,142.61,29.93,135.51,35.67,128.27z"/>
		<path class="st0" d="M117.1,157.61c7.23-8.2,11.8-17.71,13.8-28.43c2.34-12.51,1.1-24.69-3.87-36.44
			c-0.35-0.82-0.12-0.91,0.64-0.91c7.75,0.02,15.51-0.01,23.26,0.01c2.4,0,4.51,2.17,4.49,4.68c-0.03,4.01-0.63,7.96-1.55,11.84
			c-5.05,21.14-16.88,37.39-35.37,48.8C117.82,157.57,117.82,157.57,117.1,157.61z"/>
		<path class="st0" d="M147.62,135.91c3.27,6.52,5.55,13.25,6.82,20.31c0.5,2.75,0.87,5.52,0.99,8.31c0.14,3.29-1.88,5.37-5.15,5.37
			c-15.31,0.01-30.62,0.02-45.92,0.03c-0.38,0-0.75,0-1.19-0.24c0.99-0.46,1.94-1.03,2.96-1.38c17.16-5.91,30.66-16.57,40.86-31.5
			C147.16,136.55,147.35,136.29,147.62,135.91z"/>
	</g>
	<g>
		<path d="M222.23,110.63c2.62-8.44,8.08-14.78,14.54-20.39c4.19-3.64,8.61-6.99,13.04-10.34c1.62-1.23,3.07-2.68,4.61-4.02
			c0.74-0.65,1.57-1.19,2.48-1.55c1.21-0.47,2.27-0.5,3.28,0.65c1.18,1.36,2.65,2.42,4.37,3.05c2.1,0.78,3.77-0.18,4.15-2.39
			c1.3-7.48-1.6-13.28-7.26-17.95c-0.25-0.21-0.52-0.4-0.78-0.6c-0.26-0.19-0.52-0.39-0.81-0.61c1.13-0.85,2.41-1.26,3.63-1.81
			c1.08-0.48,2.16-0.95,3.21-1.5c4.6-2.43,4.45-7.39,2.39-10.36c-2.08-3-5.07-4.56-8.61-5.02c-4.48-0.58-8.73,0.53-12.89,2.08
			c-3.92,1.46-7.72,3.26-11.77,4.39c-2.85,0.8-5.74,1.09-8.93,0.79c0.49-0.39,0.81-0.66,1.15-0.9
			c10.26-7.28,21.68-11.83,33.92-14.46c10.56-2.27,21.24-2.93,32.01-2.65c0.56,0.01,1.11,0.09,1.68,0.24
			c-7.52,1.68-14.87,3.8-22.05,7.25c0.92,0.21,1.62,0.33,2.29,0.53c4.95,1.4,7.36,5.82,5.88,10.77c-0.25,0.82-0.56,1.61-0.97,2.37
			c-0.96,1.8-0.77,3.53,0.38,5.18c1.26,1.8,3.02,2.86,5.15,3.21c1.67,0.27,3.29-0.09,4.28-1.52c2.63-3.77,6.42-5.78,10.58-7.3
			c3.51-1.28,7.13-2.3,10.49-3.99c3.5-1.76,6.14-4.39,8.02-7.79c0.65-1.17,1.71-1.84,2.76-2.52c0.69-0.44,1.43-0.01,2.1,0.25
			c6.32,2.4,12.12,5.78,17.77,9.43c2.19,1.41,4.36,2.87,6.55,4.28c0.62,0.4,1,0.57,0.06,1.17c-1.81,1.17-3.72,2.21-5.24,3.78
			c-1.85,1.9-2.07,3.22-0.84,5.59c0.6,1.15,1.31,2.26,1.42,3.6c0.12,1.52-0.12,2.96-1.31,4.02c-2.02,1.81-3.91,1.74-5.79-0.23
			c-1.21-1.27-2.25-2.7-3.46-3.95c-1.33-1.37-2.69-1.49-4.12-0.22c-1.93,1.7-3.64,3.63-4.83,5.94c-0.76,1.48-0.46,1.99,1.15,2.13
			c2.15,0.18,3.52,1.36,4.32,3.28c0.84,2.01,0.99,4.19,1.46,6.29c0.13,0.57-0.27,0.68-0.65,0.84c-1.64,0.72-3.35,1.26-4.94,2.09
			c-3.68,1.9-4.67,4.47-3.16,8.29c0.51,1.29,1.19,2.5,1.52,3.86c0.35,1.4,0.24,2.75-0.97,3.67c-1.92,1.46-3.3,3.38-4.73,5.25
			c-3.94,5.15-7.18,10.67-8.71,17.07c-1.89,7.92,0.08,14.75,5.81,20.5c2.89,2.9,6.57,3.78,10.5,3.89c3.6,0.09,7.17-0.38,10.75-0.61
			c2.81-0.18,4.91,0.84,6.44,3.16c1.06,1.61,1.72,3.41,2.35,5.21c1.02,2.92,2.02,5.84,3.34,8.65c1.38,2.93,1.55,5.84,0.34,8.98
			c-2.16,5.61-1.3,11.22,0.66,16.73c2.12,5.95,5.44,11.27,8.72,16.62c1.16,1.89,1.16,1.89-0.35,3.44
			c-14.37,14.78-31.56,24.52-51.73,28.91c-6.55,1.43-13.21,2.01-19.92,2.1c-9.51,0.14-18.9-0.74-28.14-3
			c-1.03-0.25-2.06-0.52-3.07-0.8c-2.12-0.6-3.09-1.89-3.21-4.15c-0.11-2.04,0.36-3.96,1.24-5.79
			c6.34-13.14,13.94-25.51,22.88-37.05c1.5-1.94,2.25-3.99,2.61-6.31c0.28-1.77,0.62-3.53,0.97-5.29c0.4-2.01,1.18-3.88,2.25-5.63
			c1.18-1.93,2.03-3.99,2.26-6.26c0.3-2.97-0.97-5.29-3.59-6.09c-5.5-1.69-10.28-4.67-14.9-7.99c-4.57-3.28-8.92-6.87-13.64-9.95
			c-3.84-2.51-7.87-4.63-12.4-5.58c-5.63-1.19-10.93-0.1-15.99,2.47c-0.22,0.11-0.43,0.24-0.64,0.35c-2,1.04-3.49,0.52-4.27-1.61
			c-0.53-1.45-0.89-2.96-1.34-4.43c-0.74-2.4-1.86-4.57-3.42-6.56c-1.27-1.62-1.84-3.54-1.63-5.61c0.07-0.71-0.14-0.84-0.76-0.85
			c-1.03-0.01-1.93,0.33-2.73,0.92c-0.75,0.56-1.44,1.2-2.18,1.78c-2.07,1.65-4.58,1.14-5.69-1.26c-1.61-3.46-1.36-8.17,2.12-11.33
			c5.54-5.02,15.45-3.74,18.27,3C221.94,110.5,222.05,110.53,222.23,110.63z"/>
		<path d="M242.86,229.19c-4.52-1.7-8.61-3.68-12.44-6.14c-23.26-14.96-39-35.66-46.57-62.26c-3.14-11.04-4.56-22.44-4.1-33.98
			c0.17-4.41,0.79-8.75,2.09-12.99c0.23-0.76,0.43-1.03,1.22-0.62c0.83,0.43,1.75,0.68,2.57,1.11c1.15,0.6,1.82,1.56,1.92,2.92
			c0.23,3.45,2,5.78,5.24,6.95c1.15,0.41,2.32,0.82,3.52,1c4.42,0.65,8.13,2.69,11.53,5.5c2.73,2.26,5.44,4.56,8.45,6.47
			c1.66,1.05,3.4,1.9,5.27,2.52c2.15,0.72,2.68,1.88,1.9,4.04c-1.16,3.18-2.87,6.11-4.13,9.24c-1.55,3.86-2.02,7.65-0.03,11.56
			c1.78,3.5,4.15,6.51,6.91,9.26c1.59,1.58,3.14,3.2,4.7,4.82c3.57,3.72,4.78,8.38,5.44,13.32c0.84,6.31,1.18,12.66,1.9,18.97
			C238.96,217.09,240.15,223.18,242.86,229.19z"/>
		<path class="st0" d="M164.99,122.16c0-1.94,0-3.87,0-5.81c-0.01-11.51,0.07-23.02-0.07-34.52c-0.14-12.61-0.21-25.22-0.17-37.82
			c0.03-10.36,0.22-20.71,0.66-31.06c0.03-0.67,0.15-0.89,0.86-0.89c15.2,0.03,30.39,0.05,45.59,0.05c10.99,0.01,21.98,0,32.97,0
			c10.05,0,20.1,0,30.15,0c0.45,0,0.89,0,1.34,0c-29.4,2.6-54.52,14.5-75.39,35.18C180.1,67.93,167.96,92.86,164.99,122.16z"/>
		<path class="st0" d="M405.47,142.77c0,1.18,0,2.35,0,3.53c0.01,10.57-0.06,21.14,0.06,31.71c0.16,13.42,0.23,26.85,0.22,40.27
			c-0.01,11.05-0.22,22.1-0.64,33.15c-0.03,0.79-0.11,1.2-1.12,1.2c-36.52-0.05-73.04-0.05-109.55-0.07c-0.24,0-0.49,0-0.73-0.04
			c29.43-2.44,54.59-14.24,75.55-34.86C390.2,197.05,402.42,172.13,405.47,142.77z"/>
		<path d="M273.58,252.36c-2.77,0.24-5.54,0.12-8.31,0.09c-3.1-0.04-6.2-0.03-9.3,0.01c-9.51,0.1-19.03,0.14-28.55,0.17
			c-11.19,0.04-22.38,0.11-33.57,0.07c-9.26-0.04-18.53-0.25-27.78-0.59c-0.9-0.03-1.13-0.26-1.13-1.18
			c0.03-35.84,0.02-71.68,0.02-107.51c0-0.32,0.03-0.64,0.19-0.97c0.26,2.11,0.49,4.22,0.78,6.33c1.71,12.7,5.42,24.81,11.36,36.15
			c17.05,32.53,43.09,54.16,78.62,64.08c5.78,1.62,11.71,2.51,17.68,3.15C273.59,252.23,273.58,252.3,273.58,252.36z"/>
		<path d="M296.88,12.29c0.44-0.03,0.89-0.1,1.33-0.1c8.05-0.01,16.1,0.02,24.14-0.01c8.82-0.03,17.64-0.12,26.46-0.15
			c9.76-0.04,19.52-0.12,29.28-0.07c8.81,0.05,17.62,0.27,26.43,0.59c0.83,0.03,1.08,0.27,1.08,1.12
			c-0.02,35.92-0.02,71.84-0.03,107.76c0,0.35,0.12,0.73-0.25,1.12c-0.28-2.91-0.58-5.73-1.01-8.54
			c-2.62-16.79-8.7-32.25-18.09-46.38c-15.15-22.79-35.46-39.2-61.2-48.75c-9.1-3.38-18.51-5.41-28.16-6.4
			C296.88,12.42,296.88,12.35,296.88,12.29z"/>
		<path class="st0" d="M379.76,96.39c-1.18,1.47-2.57,2.41-4.18,2.87c-7.29,2.1-14.48,1.95-21.48-1.24
			c-1.15-0.53-2.19-1.26-3.13-2.12c-0.84-0.76-0.81-1.2,0.23-1.7c0.77-0.36,1.59-0.62,2.41-0.85c1.89-0.51,3.78-1.03,5.69-1.43
			c3.43-0.73,6.71,0.04,9.95,1.15C372.68,94.26,375.98,95.79,379.76,96.39z"/>
	</g>
</g>
</svg>
