<?xml version="1.0" encoding="utf-8"?>
<!-- Generator: Adobe Illustrator 28.1.0, SVG Export Plug-In . SVG Version: 6.00 Build 0)  -->
<svg version="1.1" id="Layer_1" xmlns="http://www.w3.org/2000/svg" xmlns:xlink="http://www.w3.org/1999/xlink" x="0px" y="0px"
	 viewBox="0 0 268.28 271.08" style="enable-background:new 0 0 268.28 271.08;" xml:space="preserve">
<style type="text/css">
	.st0{fill:#040404;}
</style>
<path class="st0" d="M207.59,263.42c-4.69,3.04-9.88,3.85-14.68,0.81c-16.79-8.76-33.26-18.32-49.86-27.39
	c-7.01-2.95-7.87-10.34-7.42-17.09c0.2-19.7,0.04-39.4,0.03-59.09c0.12-5.26-2.43-7.35-2.7-0.81c-0.46,22,0.17,44.01-0.15,66.03
	c0.19,6.27-4.73,10.23-10.02,12.54c-18.21,8.32-34.67,22.21-53.86,27.79c-5.37-0.34-10-4.05-14.63-6.51
	c-13.15-7.36-26.43-14.48-39.59-21.82c-7.8-3.47-9.84-9-9.33-17.21c0.04-19.75,0.31-39.55-0.05-59.3c0.13-5.28-0.48-11.8,4.64-14.92
	c18.81-10.35,38.6-19.02,58.03-28.09c3.18-1.77,3.98-5.17,3.83-8.6c-0.25-20.88,0.32-41.75-0.03-62.65
	c0.01-3.62,0.04-7.69,1.64-10.8c4.19-6.56,17.26-10.14,24.23-13.99c12.89-5.11,24.43-13.18,37.64-17.25
	c4.15-0.88,7.75,1.16,11.3,3.09c15.76,8.72,32.49,15.68,47.89,24.94c7.59,6.42,3.41,18.23,4.24,26.97
	c0.23,16.77-0.02,33.55,0.18,50.32c-0.93,7.1,6.2,8.41,11.14,10.98c60.08,33.39,52.38,11.88,52.44,69.72
	c0.33,57.63,6.17,34.94-54.79,72.26L207.59,263.42z M144.71,198.34c-0.1,7.26,0.01,14.53-0.02,21.81c-0.05,2.75,0.13,5.75,2.07,7.86
	c1.06,1.21,2.51,2.1,3.92,2.89c4.6,2.54,9.2,5.08,13.77,7.66c8.34,4.63,16.6,9.52,24.97,14.07c7.05,3.94,4.83-7.13,5.04-11.06
	c0.09-8.69,0.02-17.34,0.15-26.03c0.1-5.65-0.08-11.29-0.17-16.94c-0.17-3.82,0.74-8.08-0.74-11.65c-1.04-2.26-3.3-3.53-5.37-4.73
	c-2.98-1.64-5.83-3.6-8.88-5.24c-2.18-0.94-6.79-4.78-7.87-0.89c-0.81,2.5,0.33,6.66-1.44,8.58c-2.23,1.5-7.55-1.4-9.03-3.87
	c-2.61-4.18,0.06-10.21-2.73-14.34c-2-2.89-5.64-4.65-8.77-5.93c-3.49-1.28-4.85,1.26-4.86,4.35c-0.04,11.1-0.25,22.21-0.05,33.31
	L144.71,198.34z M14.62,198.32c-0.06,6.54-0.29,13.13-0.1,19.72c0.07,2.38-0.09,4.88,0.6,7.16c0.66,2.26,2.38,3.88,4.37,5.04
	c4.9,2.85,9.89,5.73,14.84,8.54c6.74,3.86,13.63,7.56,20.41,11.26c2.32,1.05,6.34,4.65,8.73,3c1.05-0.97,1.07-3.37,1.08-4.98
	c-0.23-19.16-0.03-38.29-0.05-57.46c-0.04-4-2.77-6.8-6.15-8.48c-3.83-2.15-7.57-4.47-11.42-6.48c-11.16-6.24-0.06,15.39-12.71,7.96
	c-8.74-4.65-0.02-15.78-9.13-20.24c-11.13-6.94-10.68-4.35-10.41,7.14c-0.23,9.21-0.27,18.47-0.06,27.66L14.62,198.32z
	 M213.13,133.84c0.54-1.55-1.61-2.41-2.72-3.13c-5.12-2.97-8.8-3.99-14.18-1.26c-14.28,6.64-28.5,12.72-42.68,19.6
	c-1.14,0.57-2.97,1.5-2.93,2.67c0.28,1.66,2.46,2.56,3.82,3.42c6.98,4.3,9.63,4.53,16.43,0.81c12.99-6.74,26.32-12.92,39.21-19.78
	c1.06-0.56,2.57-1.38,3.03-2.26L213.13,133.84z M97.92,162.68c5.63-2.86,11.12-5.77,17.08-8.83c3.65-1.84,4.79-3.41-0.11-5.61
	c-4.41-2.1-8.32-4.31-12.65-6.21c-1.84-0.79-3.83-1.32-5.83-1.16c-1.64,0.11-3.3,0.66-4.83,1.33
	c-13.86,6.16-27.01,13.89-40.65,20.32c-1.94,1.03-6.47,2.93-3.55,5.21c2.58,1.67,6.32,3.41,9.2,5.03
	c12.5,6.67,12.33,6.29,24.64-0.91c5.52-3.26,11.06-6.32,16.56-9.1L97.92,162.68z M197.7,154.14c-6.15,3.12-12,6.07-18.29,9.26
	c-4.38,2.12-3.92,3.75,0.25,5.8c4.04,2.09,7.75,3.85,11.54,6.1c2.22,1.29,4.65,2.67,7.29,2.44c1.92-0.14,3.83-1.06,5.56-1.99
	c13.59-7.64,26.91-14.32,41.13-21.76c4.65-2.33,4.18-3.97-0.31-5.97c-5.07-2.15-9.72-4.97-14.79-7.12
	c-3.82-1.42-7.37,0.51-10.99,2.44c-7.1,3.56-14.31,6.92-21.26,10.75L197.7,154.14z M43.61,139.78c-6.67,3.18-13.48,6.16-20.3,9.3
	c-2.34,1.04-5.19,2.67-1.73,4.73c1.05,0.67,2.27,1.24,3.39,1.82c3.94,2.14,7.73,4.42,12.02,2.35c14.16-7.31,29.02-14.29,42.76-21.86
	c1.64-0.98,4.47-2.52,2.35-4.39c-2.44-1.83-5.75-3.62-8.85-4.11c-4.02-0.5-8.08,2.28-11.98,3.91c-5.88,2.63-11.76,5.31-17.51,8.18
	L43.61,139.78z M93.36,37.91c-3.55,1.6-4.39,3.29-0.98,5.21c4.57,2.28,9.14,6.14,14.25,3.68c14.61-7.61,30.07-14.54,44.13-22.65
	c2.63-1.69,1.67-3.34-0.76-4.66c-2.67-1.45-5.6-2.86-8.44-2.87c-1.94-0.02-3.93,0.69-5.72,1.53c-7.21,3.81-14.89,6.7-22.17,10.31
	c-6.6,3.27-13.58,6.16-20.17,9.4L93.36,37.91z M108.78,132.14c5.3,3.03,10.54,6.13,15.91,9.1c2.11,1.24,5.52,2.7,6.08-0.82
	c0.55-19.4,0.18-38.93,0.34-58.37c0.28-5.63-1.89-9.1-6.99-11.43c-3.18-1.21-13.13-8.99-15.4-7.27c-1.9,1.8-0.93,5.8-1.66,8.34
	c-0.73,4.13-5.64,1.48-7.62-0.33c-5.15-3.92-1.82-10.98-3.88-15.21c-2.12-3.43-6.37-5.33-9.77-7.22c-5.42-2.69-4.65,4.06-4.65,7.43
	c-0.04,17.44-0.09,34.92-0.16,52.34c-0.07,3.37,0.06,6.78,2.9,9.03c4.12,3.25,9.6,5.43,13.81,8.18c3.57,2.18,7.36,4.13,10.96,6.12
	L108.78,132.14z M146.65,35.23c-10.22,4.94-20.56,10.01-30.62,15.46c-4.1,2.13-4.13,3.79,0.1,5.89c4.57,2.37,9.05,4.68,13.52,6.98
	c2.8,1.52,5.98,1.91,8.91,0.45c15.05-7.92,29.62-15.48,44.59-23.83c2.22-1.49,1.58-2.81-0.7-3.93
	c-22.01-9.97-13.59-12.66-35.66-1.09L146.65,35.23z M145.59,159.69c-0.19-0.3-0.66-0.11-0.71,0.05c0.03,0.34,0.55,0.12,0.69,0.02
	L145.59,159.69z"/>
</svg>
