<?xml version="1.0" encoding="UTF-8"?><svg id="Layer_1" xmlns="http://www.w3.org/2000/svg" viewBox="0 0 920.33 887.5"><defs><style>.cls-1{fill:#f70042;stroke-width:0px;}</style></defs><path class="cls-1" d="M919.98,456.03c-.79-76.09-62.07-138.03-137.33-139.45-29.91-.56-57.64,7.79-80.65,22.66-2.01,1.3-4.6,1.31-6.61.02-22.88-14.59-50.34-22.76-79.93-22.21-70.18,1.32-128.21,55.28-136.35,124.26-.6,4.99-.93,10.06-.98,15.19-.08,7.45-.14,14.91-.19,22.36.02,15.92.02,31.83.02,47.75.17,25.45.13,50.92-.05,76.38,0-6.56-.02-13.12,0-19.68-.06,2.39-.21,4.79-.54,7.15-.94,6.77-5.31,12.01-11.23,14.14-1.67.6-3.46.96-5.33,1.03-2.32.09-4.58-.27-6.67-1.03-5.52-1.98-9.85-6.67-11.1-12.8-.09-.43-.16-.86-.23-1.29v-.02c-.46-3.04-.41-6.19-.42-9.27-.03-38.13.21-76.27-.06-114.4-.01-2-.06-3.99-.15-5.96-.08-1.82-.18-3.62-.32-5.42v-6.91c0-9.91-2.33-19.28-6.48-27.59,0-.01,0-.02-.01-.03-3-6.01-6.95-11.47-11.65-16.17-11.2-11.2-26.68-18.13-43.78-18.13-23.62,0-44.15,13.22-54.59,32.67-4.68,8.71-7.33,18.67-7.33,29.25v12.36c-.09,1.96-.14,3.94-.15,5.93-.27,38.13-.03,76.27-.06,114.4,0,3.53.05,7.15-.65,10.58-1.72,8.45-9.31,14.16-17.77,13.83-8.52-.33-15.37-6.5-16.56-15.17-.45-3.22-.57-6.51-.58-9.77-.02-39.22-.05-78.45.02-117.67.01-7.34.48-14.58,1.38-21.71,4.03-32.35,16.83-62.24,35.88-87.2,7.58-9.93,16.14-19.08,25.55-27.3,3.84-3.35,7.81-6.54,11.91-9.57,7.32-5.4,15.04-10.27,23.11-14.55,25.34-13.42,54.09-21.02,84.36-20.92,25.25.08,50.5.08,75.75.08,14.44,0,28.89.01,43.33.03,2.26,0,4.51,0,6.77,0,9.58.02,19.03-1.05,28.34-3.18,32.09-7.31,59.16-24.71,78.43-48.31,23.4-28.61,35.34-66.34,30.93-106.22C720.32,54.65,660.52,1.09,589.01.3c-41.95-.46-83.9-.34-125.85-.03-28.38.21-56.09,2.66-83.07,7.46-64.42,11.45-124.68,36.24-179.89,75.64-58.32,41.61-104.11,90.63-137.09,147.02C28.89,288.86,8.44,355.25,2.06,429.49c-4.11,47.8-.64,95.84-1.58,134.92,0,57.87.16,106.9-.17,155.93-.05,7.29,2.02,9.07,9.15,9,34.86-.38,69.73-.36,104.59-.01,7.27.07,9.67-1.6,9.65-9.36-.3-83.62-.22-167.24-.19-250.87,0-9.4.33-18.66.97-27.8,3.11-44.28,13.73-85.47,31.97-123.42,5.92-12.35,12.65-24.35,20.19-36,14.27-22.07,31.44-42.89,51.53-62.45,25.4-24.72,53.1-44.77,83.01-60.02,21.81-11.11,44.79-19.67,68.91-25.61,18.18-4.48,37.01-7.48,56.46-8.97,49.15-3.76,98.56-.76,147.85-1.24,13.28-.12,21.04,6.46,21.17,17.4.13,11.05-8.01,17.75-21.68,17.75-30.79.02-61.57.01-92.35.01-14.2,0-28.37-.03-42.54.66-9.2.44-18.39,1.19-27.58,2.44-14.1,1.92-27.9,4.86-41.33,8.72-64.6,18.57-120.64,58.64-160.12,111.29-8.59,11.45-16.39,23.49-23.32,36.04-20.71,37.45-33.7,79.39-36.79,123.38-.38,5.37-.61,10.77-.69,16.2-.63,44.12-.57,88.26-.11,132.38.79,76.09,62.07,138.03,137.33,139.45,15.76.3,30.91-1.88,45.08-6.18,2.92-.88,5.8-1.86,8.63-2.93,9.43-3.53,18.35-8.03,26.66-13.38,2.02-1.3,4.61-1.32,6.63-.02,17.06,11,36.71,18.4,57.91,21.23,7.32.99,14.84,1.42,22.49,1.28,3.97-.07,7.89-.32,11.77-.72,1.61-.17,3.21-.36,4.81-.59,10.7-1.5,21.03-4.22,30.83-8.02,47.65-18.5,82.94-62.58,88.99-115.4.57-4.84.88-9.75.93-14.72.07-7.26.14-14.53.19-21.79-.04-27.8-.03-55.61-.01-83.42,0-6.33,0-12.65.01-18.98,0-3.26.13-6.55.57-9.77,1.2-8.67,8.05-14.84,16.57-15.17,8.46-.33,16.05,5.38,17.77,13.83.7,3.43.64,7.05.64,10.58.04,38.13-.2,76.27.06,114.4.01,1.57.04,3.13.11,4.68,1.7,49,24.73,90.95,61.69,116.96,7.89,5.56,16.43,10.39,25.52,14.4,4.23,1.86,4.93,7.63,1.28,10.46-30.9,23.93-69.49,38.22-110.93,38.08-41.52-.14-83.05-.04-124.57-.12v.08c-4.71,0-9.42-.02-14.13-.04-8.14-.02-9.8,2.45-9.72,10.08.4,34.77.36,69.56-.04,104.33-.08,7.23,1.94,9.07,9.13,9.05,4.92-.02,9.84-.03,14.76-.04h.3c1.52-.2,3.13-.31,4.83-.31,30.78-.02,61.57-.01,92.35-.01h4.2c22.01,0,43.99-.11,65.92-3.1,96.47-13.16,178.99-73.57,224.5-155.58,20.79-37.44,33.86-79.38,37.02-123.38.4-5.53.64-11.09.72-16.68.64-44.11.58-88.25.12-132.37ZM796.78,582.87c0,5.61-.28,11.15-.81,16.64-.3,3.15-2.98,5.54-6.14,5.54-8.53,0-15.05-1.52-19.76-4.75-4.71-3.24-7.62-8.2-8.91-15.08-.08-.46-.11-.93-.09-1.39.07-1.58.1-3.16.11-4.76.27-38.14.03-76.27.06-114.41.01-3.53-.05-7.14.65-10.57,1.72-8.45,9.31-14.16,17.77-13.83,8.52.33,15.36,6.5,16.56,15.17.45,3.22.57,6.51.57,9.77.03,39.22.06,78.45-.01,117.67Z"/></svg>