<?xml version="1.0" encoding="UTF-8"?><svg id="Layer_1" xmlns="http://www.w3.org/2000/svg" width="240" height="301" viewBox="0 0 240 301"><defs><style>.cls-1{fill:#079854;}.cls-1,.cls-2,.cls-3{stroke-width:0px;}.cls-2{fill:#09322d;}.cls-3{fill:#acc637;}</style></defs><path class="cls-3" d="M90.85,96.18c-29.39,23.39-66.42,23.64-79.15,22.93.04-59.78,48.51-108.23,108.3-108.23,3.77,0,7.5.2,11.18.57-3.75,37.89-17.3,66.41-40.33,84.73Z"/><path class="cls-1" d="M52.05,209.86c-19.33-27.74-36.14-57.85-39.67-81.87,14.89.77,52.71-.11,83.87-24.86,19.49-15.47,32.68-37.47,39.46-65.52,5.18,47.88-6.69,90.82-35.49,127.96-17.52,22.59-37.19,37.18-48.17,44.3Z"/><path class="cls-2" d="M120,290.12c-1.86,0-34.03-33.19-62.83-73.06,11.56-7.5,31.56-22.44,49.77-45.83,24.35-31.27,49.51-83.86,33.67-158.38,49.96,9.63,87.7,53.56,87.7,106.32,0,59.82-104.33,170.94-108.31,170.94Z"/></svg>