<?xml version="1.0" encoding="UTF-8"?><svg id="Layer_1" xmlns="http://www.w3.org/2000/svg" width="269.5" height="220.67" viewBox="0 0 269.5 220.67"><defs><style>.cls-1{stroke:#2b1811;stroke-miterlimit:10;stroke-width:5.44px;}.cls-1,.cls-2{fill:#2b1811;}.cls-2,.cls-3,.cls-4,.cls-5{stroke-width:0px;}.cls-3{fill:#079854;}.cls-4{fill:#09322d;}.cls-5{fill:#acc637;}</style></defs><path class="cls-5" d="M173.15,141.76h7.8v7.8c0,23.86-19.37,43.24-43.24,43.24h-7.8v-7.8c0-23.86,19.37-43.24,43.24-43.24Z"/><path class="cls-2" d="M65.3,188.34c0,4.42-3.6,8.02-8.02,8.02s-8.03-3.6-8.03-8.02c0-3.14,1.82-5.87,4.46-7.18v-106.19l6.09-6.09-5.05-5.05-1.04,1.04v-18.61h7.14v134.91c2.64,1.31,4.45,4.04,4.45,7.18Z"/><polygon class="cls-2" points="59.81 68.87 53.71 74.97 53.71 64.86 54.75 63.82 59.81 68.87"/><circle class="cls-1" cx="252.47" cy="48.1" r="4.46"/><path class="cls-2" d="M20.58,159.26c-1.87,0-3.66-.65-5.12-1.86-1.65-1.37-2.66-3.3-2.86-5.44-.4-4.41,2.85-8.32,7.26-8.72,2.14-.2,4.22.45,5.86,1.82,1.65,1.37,2.66,3.3,2.86,5.44s-.45,4.22-1.82,5.86c-1.37,1.65-3.3,2.66-5.44,2.86-.25.02-.5.03-.74.03ZM20.6,150.35s-.05,0-.08,0c-.49.04-.84.48-.8.96.03.3.19.49.32.6.13.11.34.23.65.2.3-.03.49-.19.6-.32.11-.13.23-.35.2-.65-.04-.46-.43-.8-.88-.8Z"/><polygon class="cls-2" points="59.81 68.87 53.71 74.97 23.93 104.75 21.89 106.78 16.9 101.8 16.84 101.74 54.75 63.82 59.81 68.87"/><rect class="cls-2" x="16.79" y="101.8" width="7.14" height="51.66"/><path class="cls-2" d="M255.5,109.62h-.06l.04.04-36.9,36.9v29.45c.09,1.64.58,15.54-8.29,25.04-5.32,5.7-12.79,8.6-22.2,8.6h-89.83v-62.91h7.14v55.77h82.69c7.33,0,13.04-2.11,16.95-6.3,7.11-7.59,6.41-19.73,6.41-19.85v-.24s0-133.65,0-133.65c0-23.58-24.81-24.28-25.87-24.3h-96.06v-7.14h96.12c.37,0,8.27.15,16.24,3.98,7.63,3.66,16.71,11.4,16.71,27.46v94.01l29.78-29.79v-58.99h7.14v61.93Z"/><path class="cls-3" d="M194.95,38.11v.77l-112.36,112.36h-.77v-17.29c0-52.93,42.91-95.84,95.83-95.84h17.3Z"/><path class="cls-4" d="M194.95,38.88v16.53c0,52.92-42.91,95.83-95.84,95.83h-16.52l112.36-112.36Z"/></svg>